HIERARCHY
ROOT Character1_Hips
{
  OFFSET 0.0213904 16.1711 -0.0466787
  CHANNELS 6 Xposition Yposition Zposition Zrotation Xrotation Yrotation
  JOINT Character1_LeftUpLeg
  {
    OFFSET 1.33984 -0.942852 0
    CHANNELS 6 Xposition Yposition Zposition Zrotation Xrotation Yrotation
    JOINT Character1_LeftLeg
    {
      OFFSET 1.03111 -5.48941 0.514162
      CHANNELS 6 Xposition Yposition Zposition Zrotation Xrotation Yrotation
      JOINT Character1_LeftFoot
      {
        OFFSET 0.584471 -7.37543 -1.61389
        CHANNELS 6 Xposition Yposition Zposition Zrotation Xrotation Yrotation
        JOINT Character1_LeftToeBase
        {
          OFFSET 0.308452 -0.81575 3.43202
          CHANNELS 6 Xposition Yposition Zposition Zrotation Xrotation Yrotation
          End Site
          {
            OFFSET 0 0 0
          }
        }
      }
    }
  }
  JOINT Character1_RightUpLeg
  {
    OFFSET -1.33984 -0.942852 0
    CHANNELS 6 Xposition Yposition Zposition Zrotation Xrotation Yrotation
    JOINT Character1_RightLeg
    {
      OFFSET -1.03111 -5.48942 0.514162
      CHANNELS 6 Xposition Yposition Zposition Zrotation Xrotation Yrotation
      JOINT Character1_RightFoot
      {
        OFFSET -0.584472 -7.37543 -1.61389
        CHANNELS 6 Xposition Yposition Zposition Zrotation Xrotation Yrotation
        JOINT Character1_RightToeBase
        {
          OFFSET -0.308452 -0.815752 3.43202
          CHANNELS 6 Xposition Yposition Zposition Zrotation Xrotation Yrotation
          End Site
          {
            OFFSET 0 0 0
          }
        }
      }
    }
  }
  JOINT Character1_Spine
  {
    OFFSET 0 1.05263 0
    CHANNELS 6 Xposition Yposition Zposition Zrotation Xrotation Yrotation
    JOINT Character1_Spine1
    {
      OFFSET 0 2.01813 0
      CHANNELS 6 Xposition Yposition Zposition Zrotation Xrotation Yrotation
      JOINT Character1_Spine2
      {
        OFFSET 0 2.01813 0
        CHANNELS 6 Xposition Yposition Zposition Zrotation Xrotation Yrotation
        JOINT Character1_LeftShoulder
        {
          OFFSET 1.05263 2.25701 0
          CHANNELS 6 Xposition Yposition Zposition Zrotation Xrotation Yrotation
          JOINT Character1_LeftArm
          {
            OFFSET 1.59242 -0.163556 -0.172859
            CHANNELS 6 Xposition Yposition Zposition Zrotation Xrotation Yrotation
            JOINT Character1_LeftForeArm
            {
              OFFSET 4.24523 -1.87828 -0.32555
              CHANNELS 6 Xposition Yposition Zposition Zrotation Xrotation Yrotation
              JOINT Character1_LeftHand
              {
                OFFSET 2.98616 -1.30582 0.32612
                CHANNELS 6 Xposition Yposition Zposition Zrotation Xrotation Yrotation
                JOINT Character1_LeftHandThumb1
                {
                  OFFSET 0.707167 -0.296377 0.777353
                  CHANNELS 6 Xposition Yposition Zposition Zrotation Xrotation Yrotation
                  JOINT Character1_LeftHandThumb2
                  {
                    OFFSET 0.248522 -0.159515 0.331579
                    CHANNELS 6 Xposition Yposition Zposition Zrotation Xrotation Yrotation
                    JOINT Character1_LeftHandThumb3
                    {
                      OFFSET 0.259194 -0.25406 0.227961
                      CHANNELS 6 Xposition Yposition Zposition Zrotation Xrotation Yrotation
                      JOINT Character1_LeftHandThumb4
                      {
                        OFFSET 0.226666 -0.258213 0.206783
                        CHANNELS 6 Xposition Yposition Zposition Zrotation Xrotation Yrotation
                        End Site
                        {
                          OFFSET 0 0 0
                        }
                      }
                    }
                  }
                }
                JOINT Character1_LeftHandIndex1
                {
                  OFFSET 1.48444 -0.354189 0.611986
                  CHANNELS 6 Xposition Yposition Zposition Zrotation Xrotation Yrotation
                  JOINT Character1_LeftHandIndex2
                  {
                    OFFSET 0.504724 -0.451988 0.0493907
                    CHANNELS 6 Xposition Yposition Zposition Zrotation Xrotation Yrotation
                    JOINT Character1_LeftHandIndex3
                    {
                      OFFSET 0.296442 -0.265512 0.0299126
                      CHANNELS 6 Xposition Yposition Zposition Zrotation Xrotation Yrotation
                      JOINT Character1_LeftHandIndex4
                      {
                        OFFSET 0.197651 -0.217277 0.0208595
                        CHANNELS 6 Xposition Yposition Zposition Zrotation Xrotation Yrotation
                        End Site
                        {
                          OFFSET 0 0 0
                        }
                      }
                    }
                  }
                }
                JOINT Character1_LeftHandMiddle1
                {
                  OFFSET 1.48537 -0.317032 0.212679
                  CHANNELS 6 Xposition Yposition Zposition Zrotation Xrotation Yrotation
                  JOINT Character1_LeftHandMiddle2
                  {
                    OFFSET 0.67206 -0.620936 0.0176346
                    CHANNELS 6 Xposition Yposition Zposition Zrotation Xrotation Yrotation
                    JOINT Character1_LeftHandMiddle3
                    {
                      OFFSET 0.264032 -0.321119 0.00884268
                      CHANNELS 6 Xposition Yposition Zposition Zrotation Xrotation Yrotation
                      JOINT Character1_LeftHandMiddle4
                      {
                        OFFSET 0.180854 -0.241264 0.00658419
                        CHANNELS 6 Xposition Yposition Zposition Zrotation Xrotation Yrotation
                        End Site
                        {
                          OFFSET 0 0 0
                        }
                      }
                    }
                  }
                }
                JOINT Character1_LeftHandRing1
                {
                  OFFSET 1.48599 -0.345216 -0.172738
                  CHANNELS 6 Xposition Yposition Zposition Zrotation Xrotation Yrotation
                  JOINT Character1_LeftHandRing2
                  {
                    OFFSET 0.522197 -0.611355 0.0123874
                    CHANNELS 6 Xposition Yposition Zposition Zrotation Xrotation Yrotation
                    JOINT Character1_LeftHandRing3
                    {
                      OFFSET 0.273491 -0.359549 0.00739132
                      CHANNELS 6 Xposition Yposition Zposition Zrotation Xrotation Yrotation
                      JOINT Character1_LeftHandRing4
                      {
                        OFFSET 0.175076 -0.230164 0.00473118
                        CHANNELS 6 Xposition Yposition Zposition Zrotation Xrotation Yrotation
                        End Site
                        {
                          OFFSET 0 0 0
                        }
                      }
                    }
                  }
                }
                JOINT Character1_LeftHandPinky1
                {
                  OFFSET 1.45006 -0.450851 -0.482262
                  CHANNELS 6 Xposition Yposition Zposition Zrotation Xrotation Yrotation
                  JOINT Character1_LeftHandPinky2
                  {
                    OFFSET 0.289756 -0.353117 -0.0298238
                    CHANNELS 6 Xposition Yposition Zposition Zrotation Xrotation Yrotation
                    JOINT Character1_LeftHandPinky3
                    {
                      OFFSET 0.271225 -0.369689 -0.028032
                      CHANNELS 6 Xposition Yposition Zposition Zrotation Xrotation Yrotation
                      JOINT Character1_LeftHandPinky4
                      {
                        OFFSET 0.192972 -0.263027 -0.019944
                        CHANNELS 6 Xposition Yposition Zposition Zrotation Xrotation Yrotation
                        End Site
                        {
                          OFFSET 0 0 0
                        }
                      }
                    }
                  }
                }
              }
            }
          }
        }
        JOINT Character1_RightShoulder
        {
          OFFSET -1.05263 2.25701 0
          CHANNELS 6 Xposition Yposition Zposition Zrotation Xrotation Yrotation
          JOINT Character1_RightArm
          {
            OFFSET -1.59242 -0.163551 -0.172858
            CHANNELS 6 Xposition Yposition Zposition Zrotation Xrotation Yrotation
            JOINT Character1_RightForeArm
            {
              OFFSET -4.24519 -1.87835 -0.325765
              CHANNELS 6 Xposition Yposition Zposition Zrotation Xrotation Yrotation
              JOINT Character1_RightHand
              {
                OFFSET -2.98614 -1.30584 0.32613
                CHANNELS 6 Xposition Yposition Zposition Zrotation Xrotation Yrotation
                JOINT Character1_RightHandThumb1
                {
                  OFFSET -0.707168 -0.296375 0.777354
                  CHANNELS 6 Xposition Yposition Zposition Zrotation Xrotation Yrotation
                  JOINT Character1_RightHandThumb2
                  {
                    OFFSET -0.248521 -0.159517 0.33158
                    CHANNELS 6 Xposition Yposition Zposition Zrotation Xrotation Yrotation
                    JOINT Character1_RightHandThumb3
                    {
                      OFFSET -0.259195 -0.254063 0.227961
                      CHANNELS 6 Xposition Yposition Zposition Zrotation Xrotation Yrotation
                      JOINT Character1_RightHandThumb4
                      {
                        OFFSET -0.226667 -0.258211 0.206783
                        CHANNELS 6 Xposition Yposition Zposition Zrotation Xrotation Yrotation
                        End Site
                        {
                          OFFSET 0 0 0
                        }
                      }
                    }
                  }
                }
                JOINT Character1_RightHandIndex1
                {
                  OFFSET -1.48445 -0.354191 0.611987
                  CHANNELS 6 Xposition Yposition Zposition Zrotation Xrotation Yrotation
                  JOINT Character1_RightHandIndex2
                  {
                    OFFSET -0.504725 -0.451985 0.0493911
                    CHANNELS 6 Xposition Yposition Zposition Zrotation Xrotation Yrotation
                    JOINT Character1_RightHandIndex3
                    {
                      OFFSET -0.296443 -0.265512 0.0299124
                      CHANNELS 6 Xposition Yposition Zposition Zrotation Xrotation Yrotation
                      JOINT Character1_RightHandIndex4
                      {
                        OFFSET -0.197651 -0.217279 0.0208595
                        CHANNELS 6 Xposition Yposition Zposition Zrotation Xrotation Yrotation
                        End Site
                        {
                          OFFSET 0 0 0
                        }
                      }
                    }
                  }
                }
                JOINT Character1_RightHandMiddle1
                {
                  OFFSET -1.48537 -0.317029 0.21268
                  CHANNELS 6 Xposition Yposition Zposition Zrotation Xrotation Yrotation
                  JOINT Character1_RightHandMiddle2
                  {
                    OFFSET -0.67206 -0.620937 0.0176348
                    CHANNELS 6 Xposition Yposition Zposition Zrotation Xrotation Yrotation
                    JOINT Character1_RightHandMiddle3
                    {
                      OFFSET -0.264031 -0.321119 0.00884203
                      CHANNELS 6 Xposition Yposition Zposition Zrotation Xrotation Yrotation
                      JOINT Character1_RightHandMiddle4
                      {
                        OFFSET -0.180855 -0.241264 0.00658412
                        CHANNELS 6 Xposition Yposition Zposition Zrotation Xrotation Yrotation
                        End Site
                        {
                          OFFSET 0 0 0
                        }
                      }
                    }
                  }
                }
                JOINT Character1_RightHandRing1
                {
                  OFFSET -1.48599 -0.345213 -0.172737
                  CHANNELS 6 Xposition Yposition Zposition Zrotation Xrotation Yrotation
                  JOINT Character1_RightHandRing2
                  {
                    OFFSET -0.522197 -0.611354 0.0123877
                    CHANNELS 6 Xposition Yposition Zposition Zrotation Xrotation Yrotation
                    JOINT Character1_RightHandRing3
                    {
                      OFFSET -0.273489 -0.359548 0.00739067
                      CHANNELS 6 Xposition Yposition Zposition Zrotation Xrotation Yrotation
                      JOINT Character1_RightHandRing4
                      {
                        OFFSET -0.175076 -0.230166 0.00473132
                        CHANNELS 6 Xposition Yposition Zposition Zrotation Xrotation Yrotation
                        End Site
                        {
                          OFFSET 0 0 0
                        }
                      }
                    }
                  }
                }
                JOINT Character1_RightHandPinky1
                {
                  OFFSET -1.45007 -0.450851 -0.482262
                  CHANNELS 6 Xposition Yposition Zposition Zrotation Xrotation Yrotation
                  JOINT Character1_RightHandPinky2
                  {
                    OFFSET -0.289757 -0.353119 -0.0298243
                    CHANNELS 6 Xposition Yposition Zposition Zrotation Xrotation Yrotation
                    JOINT Character1_RightHandPinky3
                    {
                      OFFSET -0.271226 -0.369689 -0.0280309
                      CHANNELS 6 Xposition Yposition Zposition Zrotation Xrotation Yrotation
                      JOINT Character1_RightHandPinky4
                      {
                        OFFSET -0.192971 -0.263026 -0.0199453
                        CHANNELS 6 Xposition Yposition Zposition Zrotation Xrotation Yrotation
                        End Site
                        {
                          OFFSET 0 0 0
                        }
                      }
                    }
                  }
                }
              }
            }
          }
        }
        JOINT Character1_Neck
        {
          OFFSET 0 2.01813 0
          CHANNELS 6 Xposition Yposition Zposition Zrotation Xrotation Yrotation
          JOINT Character1_Head
          {
            OFFSET 0 3.0075 0
            CHANNELS 6 Xposition Yposition Zposition Zrotation Xrotation Yrotation
            End Site
            {
              OFFSET 0 0 0
            }
          }
        }
      }
    }
  }
}
MOTION
Frames:	2
Frame Time:	0.0166667
0.01263 13.68 -0.0299349 -0.190993 -0.129802 0.000615134 1.33984 -0.942851 3.15518e-010 -2.63391 -37.2319 -6.47394 1.03111 -5.48942 0.514161 0.929767 43.1474 5.83609 0.584473 -7.37543 -1.61389 -2.16716 -14.3759 -0.972594 0.308452 -0.815752 3.43202 4.59689e-016 -3.5531e-007 -1.81888e-014 -1.33984 -0.942851 5.60528e-011 1.25617 -22.604 3.54193 -1.03111 -5.48942 0.514163 0.530601 45.766 -3.95911 -0.584472 -7.37543 -1.61389 0.934454 -18.5941 1.4893 -0.308451 -0.815752 3.43202 5.20567e-015 -1.05404e-005 -4.17448e-015 -1.09727e-008 1.05263 -1.03484e-009 -0.517179 -0.100225 -0.000743533 2.22593e-009 2.01813 -7.60831e-008 -0.0156252 9.50893 -0.00281374 -6.15496e-009 2.01813 -2.61671e-008 -0.0158411 9.50888 -0.000365443 1.05263 2.25701 -2.57926e-007 -0.684531 -0.0764477 -0.0251001 1.59242 -0.163554 -0.172859 -46.0024 10.1727 -3.98296 4.24537 -1.878 -0.325371 -0.965363 -10.6289 -1.09759 2.98616 -1.3058 0.326135 -0.00809958 -0.364043 0.157394 0.707167 -0.296377 0.777355 1.45812e-005 -1.15724e-006 -4.55004e-007 0.248522 -0.159515 0.331579 4.29595e-005 -1.7685e-005 -1.44744e-006 0.259194 -0.254061 0.227961 8.14728e-005 -5.39169e-006 4.14467e-006 0.226666 -0.258213 0.206783 -7.24192e-005 -3.61727e-006 -7.22224e-006 1.48444 -0.354188 0.611987 1.45812e-005 -1.15724e-006 -4.55004e-007 0.504724 -0.451989 0.0493912 4.29595e-005 -1.7685e-005 -1.44744e-006 0.296442 -0.265513 0.0299127 8.14728e-005 -5.39169e-006 4.14467e-006 0.197651 -0.217278 0.0208598 -7.24192e-005 -3.61727e-006 -7.22224e-006 1.48537 -0.31703 0.212679 1.45812e-005 -1.15724e-006 -4.55004e-007 0.67206 -0.620936 0.0176347 4.29595e-005 -1.7685e-005 -1.44744e-006 0.264032 -0.321119 0.00884258 8.14728e-005 -5.39169e-006 4.14467e-006 0.180854 -0.241265 0.00658418 -7.24192e-005 -3.61727e-006 -7.22224e-006 1.48599 -0.345214 -0.172738 1.45812e-005 -1.15724e-006 -4.55004e-007 0.522197 -0.611354 0.0123873 4.29595e-005 -1.7685e-005 -1.44744e-006 0.273491 -0.359549 0.00739117 8.14728e-005 -5.39169e-006 4.14467e-006 0.175075 -0.230164 0.00473121 -7.24192e-005 -3.61727e-006 -7.22224e-006 1.45006 -0.450851 -0.482263 1.45812e-005 -1.15724e-006 -4.55004e-007 0.289757 -0.353117 -0.0298238 4.29595e-005 -1.7685e-005 -1.44744e-006 0.271225 -0.36969 -0.028032 8.14728e-005 -5.39169e-006 4.14467e-006 0.192972 -0.263027 -0.019944 -7.24192e-005 -3.61727e-006 -7.22224e-006 -1.05263 2.257 2.81526e-007 -2.60757e-007 7.97668e-006 1.71949e-011 -1.59242 -0.163551 -0.172859 37.7009 5.56766 23.8201 -4.24538 -1.878 -0.325359 4.64789 -17.6339 22.2702 -2.98617 -1.30578 0.326143 -0.341258 2.51398 1.11542 -0.707167 -0.296376 0.777354 3.65821e-005 -1.60768e-005 -9.4576e-006 -0.248521 -0.159517 0.33158 2.82547e-005 -2.3361e-006 -4.15918e-005 -0.259195 -0.254063 0.227961 1.12083e-005 -1.16154e-005 2.74837e-006 -0.226667 -0.258211 0.206783 -3.54943e-005 -1.52251e-005 -7.2004e-006 -1.48444 -0.354191 0.611987 3.65821e-005 -1.60768e-005 -9.4576e-006 -0.504726 -0.451986 0.0493905 2.82547e-005 -2.3361e-006 -4.15918e-005 -0.296442 -0.265513 0.0299125 1.12083e-005 -1.16154e-005 2.74837e-006 -0.197651 -0.217279 0.0208601 -3.54943e-005 -1.52251e-005 -7.2004e-006 -1.48537 -0.31703 0.212679 3.65821e-005 -1.60768e-005 -9.4576e-006 -0.672061 -0.620937 0.0176337 2.82547e-005 -2.3361e-006 -4.15918e-005 -0.264032 -0.32112 0.00884221 1.12083e-005 -1.16154e-005 2.74837e-006 -0.180854 -0.241265 0.00658396 -3.54943e-005 -1.52251e-005 -7.2004e-006 -1.48599 -0.345214 -0.172738 3.65821e-005 -1.60768e-005 -9.4576e-006 -0.522199 -0.611354 0.0123866 2.82547e-005 -2.3361e-006 -4.15918e-005 -0.273488 -0.359549 0.00739164 1.12083e-005 -1.16154e-005 2.74837e-006 -0.175077 -0.230166 0.00473179 -3.54943e-005 -1.52251e-005 -7.2004e-006 -1.45006 -0.450852 -0.482263 3.65821e-005 -1.60768e-005 -9.4576e-006 -0.289757 -0.353118 -0.0298238 2.82547e-005 -2.3361e-006 -4.15918e-005 -0.271225 -0.36969 -0.0280322 1.12083e-005 -1.16154e-005 2.74837e-006 -0.192971 -0.263025 -0.0199441 -3.54943e-005 -1.52251e-005 -7.2004e-006 -6.00168e-009 2.01813 4.49482e-008 5.2399e-010 -9.74227e-005 -4.14192e-010 -1.43567e-009 3.0075 7.72087e-007 -2.27102e-014 8.08896e-005 -3.30069e-010 
0.012537 13.2701 -0.0296912 -0.187936 -0.124162 0.000595005 1.33984 -0.94285 3.16043e-010 -3.32192 -41.0385 -7.53138 1.03111 -5.48942 0.51416 0.77867 49.1636 6.72641 0.584473 -7.37544 -1.61389 -2.21568 -13.5484 -0.881253 0.308452 -0.815752 3.43202 3.10601e-016 -3.47888e-007 -1.80894e-014 -1.33984 -0.94285 5.6146e-011 1.59483 -27.047 4.45554 -1.03111 -5.48942 0.514161 1.27083 50.1187 -4.46859 -0.584472 -7.37543 -1.61389 0.382549 -19.613 1.61336 -0.308452 -0.815752 3.43202 5.03174e-015 -8.98719e-006 -4.37326e-015 -1.09909e-008 1.05263 -1.03656e-009 -0.510029 -0.0947512 -0.000701416 2.22918e-009 2.01813 -7.60821e-008 -0.0150104 9.13332 -0.00275121 -6.16565e-009 2.01813 -2.6162e-008 -0.0152097 9.13327 -0.000401388 1.05263 2.25701 -3.22708e-007 -0.679495 -0.0760422 -0.0264717 1.59242 -0.163556 -0.172858 -39.7793 9.02886 -0.389267 4.24535 -1.87805 -0.325381 -2.46366 -9.17196 -16.5792 2.98616 -1.3058 0.326122 -0.443643 -5.34759 2.31415 0.707167 -0.296378 0.777354 -1.65624e-007 -7.46898e-007 -4.55761e-007 0.248522 -0.159515 0.331579 4.02666e-005 -1.57557e-005 -1.33575e-006 0.259194 -0.25406 0.227961 9.49582e-005 -4.36018e-006 3.4141e-006 0.226666 -0.258213 0.206783 -7.24376e-005 -3.59641e-006 -7.20742e-006 1.48444 -0.354189 0.611987 -1.65624e-007 -7.46898e-007 -4.55761e-007 0.504724 -0.451988 0.0493912 4.02666e-005 -1.57557e-005 -1.33575e-006 0.296442 -0.265513 0.0299127 9.49582e-005 -4.36018e-006 3.4141e-006 0.197651 -0.217278 0.0208597 -7.24376e-005 -3.59641e-006 -7.20742e-006 1.48537 -0.317031 0.212679 -1.65624e-007 -7.46898e-007 -4.55761e-007 0.672059 -0.620935 0.0176347 4.02666e-005 -1.57557e-005 -1.33575e-006 0.264032 -0.321119 0.00884258 9.49582e-005 -4.36018e-006 3.4141e-006 0.180854 -0.241264 0.00658418 -7.24376e-005 -3.59641e-006 -7.20742e-006 1.48599 -0.345214 -0.172738 -1.65624e-007 -7.46898e-007 -4.55761e-007 0.522198 -0.611355 0.0123873 4.02666e-005 -1.57557e-005 -1.33575e-006 0.27349 -0.359548 0.0073912 9.49582e-005 -4.36018e-006 3.4141e-006 0.175076 -0.230164 0.00473121 -7.24376e-005 -3.59641e-006 -7.20742e-006 1.45006 -0.450851 -0.482263 -1.65624e-007 -7.46898e-007 -4.55761e-007 0.289756 -0.353117 -0.0298238 4.02666e-005 -1.57557e-005 -1.33575e-006 0.271225 -0.36969 -0.028032 9.49582e-005 -4.36018e-006 3.4141e-006 0.192971 -0.263027 -0.0199442 -7.24376e-005 -3.59641e-006 -7.20742e-006 -1.05263 2.25701 -3.77321e-007 -2.5495e-007 6.69679e-006 1.72234e-011 -1.59242 -0.163552 -0.172859 32.7125 3.71682 21.8286 -4.24536 -1.87802 -0.325344 5.26387 -18.7693 27.1019 -2.98616 -1.30578 0.326165 -0.222545 1.55826 0.694521 -0.707168 -0.296375 0.777354 1.80366e-005 -1.61036e-005 -1.12304e-005 -0.248522 -0.159517 0.33158 3.88249e-005 -3.19152e-006 -4.28406e-005 -0.259195 -0.254063 0.227961 -6.81997e-006 -1.0797e-005 2.5339e-006 -0.226667 -0.258211 0.206783 -3.57364e-005 -1.42836e-005 -5.64113e-006 -1.48444 -0.354191 0.611987 1.80366e-005 -1.61036e-005 -1.12304e-005 -0.504725 -0.451987 0.049391 3.88249e-005 -3.19152e-006 -4.28406e-005 -0.296442 -0.265512 0.0299125 -6.81997e-006 -1.0797e-005 2.5339e-006 -0.197651 -0.217279 0.0208598 -3.57364e-005 -1.42836e-005 -5.64113e-006 -1.48537 -0.317029 0.21268 1.80366e-005 -1.61036e-005 -1.12304e-005 -0.67206 -0.620938 0.0176346 3.88249e-005 -3.19152e-006 -4.28406e-005 -0.264032 -0.32112 0.00884228 -6.81997e-006 -1.0797e-005 2.5339e-006 -0.180854 -0.241265 0.00658399 -3.57364e-005 -1.42836e-005 -5.64113e-006 -1.48599 -0.345214 -0.172738 1.80366e-005 -1.61036e-005 -1.12304e-005 -0.522198 -0.611354 0.0123872 3.88249e-005 -3.19152e-006 -4.28406e-005 -0.273489 -0.359549 0.00739132 -6.81997e-006 -1.0797e-005 2.5339e-006 -0.175077 -0.230165 0.00473174 -3.57364e-005 -1.42836e-005 -5.64113e-006 -1.45006 -0.450852 -0.482263 1.80366e-005 -1.61036e-005 -1.12304e-005 -0.289757 -0.353119 -0.0298237 3.88249e-005 -3.19152e-006 -4.28406e-005 -0.271225 -0.36969 -0.0280322 -6.81997e-006 -1.0797e-005 2.5339e-006 -0.192971 -0.263025 -0.0199442 -3.57364e-005 -1.42836e-005 -5.64113e-006 -6.0136e-009 2.01813 -1.10458e-007 5.24862e-010 -9.6223e-005 -3.26503e-010 -1.43739e-009 3.0075 7.20598e-007 -2.24032e-014 8.03935e-005 -2.63747e-010 
